# File created by Blade
# Date/Time:  Tue Jan 27 19:05:11 2015
#---------------------------------------------------------
:version 1.10
:name HOM
:units
  mass 1.0
  length 1.000000
  angle deg
:documentation
     Acclaim Skeleton File
:root
   axis xyz
   order TX TY TZ RX RY RZ
   position 0.000000 0.000000 0.000000
   orientation 0 0 0
:bonedata
   begin
      id 1
      name Spine_dum
      direction 0.000000 1.000000 0.000000
      length 5.195262
      axis 0.0 0.0 0.0 xyz
   end
   begin
      id 2
      name LeftUpLeg_dum
      direction 1.000000 0.000000 0.000000
      length 3.351363
      axis 0.0 0.0 0.0 xyz
   end
   begin
      id 3
      name RightUpLeg_dum
      direction -1.000000 0.000000 0.000000
      length 3.351363
      axis 0.0 0.0 0.0 xyz
   end
   begin
      id 4
      name Spine
      direction 0.000000 1.000000 0.000000
      length 0.000000
      axis 0.0 0.0 0.0 xyz
      dof rx ry rz
   end
   begin
      id 5
      name Spine_dum1
      direction 0.000000 1.000000 0.000000
      length 15.653875
      axis 0.0 0.0 0.0 xyz
   end
   begin
      id 6
      name Spine_dum2
      direction 0.000000 1.000000 0.000000
      length 10.329768
      axis 0.0 0.0 0.0 xyz
   end
   begin
      id 7
      name Spine_dum3
      direction 0.000000 1.000000 0.000000
      length 10.329768
      axis 0.0 0.0 0.0 xyz
   end
   begin
      id 8
      name Head
      direction 0.000000 1.000000 0.000000
      length 4.527550
      axis 0.0 0.0 0.0 xyz
      dof rx ry rz
   end
   begin
      id 9
      name LeftShoulder
      direction 1.000000 0.000000 0.000000
      length 6.996006
      axis 0.0 0.0 -90.0 xyz
      dof rx ry rz
   end
   begin
      id 10
      name LeftArm
      direction 1.000000 0.000000 0.000000
      length 10.209302
      axis 0.0 0.0 -90.0 xyz
      dof rx ry rz
   end
   begin
      id 11
      name LeftForeArm
      direction 1.000000 0.000000 0.000000
      length 8.563163
      axis 0.0 0.0 -90.0 xyz
      dof ry rz rx
   end
   begin
      id 12
      name LeftHand
      direction 0.000000 0.000000 0.000000
      length 0.000000
      axis 0.0 0.0 -90.0 xyz
      dof rx ry rz
   end
   begin
      id 13
      name LeftHand_dum1
      direction 0.000000 0.000000 0.000000
      length 0.000000
      axis 0.0 0.0 -90.0 xyz
   end
   begin
      id 14
      name LeftHand_dum2
      direction 1.000000 0.000000 0.000000
      length 3.937000
      axis 0.0 0.0 -90.0 xyz
   end
   begin
      id 15
      name LeftHandThumb1
      direction 0.000000 0.000000 1.000000
      length 3.937000
      axis 0.0 0.0 -90.0 xyz
      dof rx rz ry
   end
   begin
      id 16
      name RightShoulder
      direction -1.000000 0.000000 0.000000
      length 6.996006
      axis 0.0 0.0 90.0 xyz
      dof rx ry rz
   end
   begin
      id 17
      name RightArm
      direction -1.000000 0.000000 0.000000
      length 10.209302
      axis 0.0 0.0 90.0 xyz
      dof rx ry rz
   end
   begin
      id 18
      name RightForeArm
      direction -1.000000 0.000000 0.000000
      length 8.563163
      axis 0.0 0.0 90.0 xyz
      dof ry rz rx
   end
   begin
      id 19
      name RightHand
      direction 0.000000 0.000000 0.000000
      length 0.000000
      axis 0.0 0.0 90.0 xyz
      dof rx ry rz
   end
   begin
      id 20
      name RightHand_dum1
      direction 0.000000 0.000000 0.000000
      length 0.000000
      axis 0.0 0.0 90.0 xyz
   end
   begin
      id 21
      name RightHand_dum2
      direction -1.000000 0.000000 0.000000
      length 3.937000
      axis 0.0 0.0 90.0 xyz
   end
   begin
      id 22
      name RightHandThumb1
      direction 0.000000 0.000000 1.000000
      length 3.937000
      axis 0.0 0.0 90.0 xyz
      dof rx rz ry
   end
   begin
      id 23
      name LeftUpLeg
      direction 0.000000 -1.000000 0.000000
      length 16.346831
      axis 0.0 0.0 0.0 xyz
      dof rx ry rz
   end
   begin
      id 24
      name LeftLeg
      direction 0.000000 -1.000000 0.000000
      length 13.959795
      axis 0.0 0.0 0.0 xyz
      dof rx ry rz
   end
   begin
      id 25
      name LeftFoot
      direction 0.000000 -0.258819 0.965926
      length 5.165550
      axis 15.0 0.0 0.0 xyz
      dof rx ry rz
   end
   begin
      id 26
      name LeftToeBase
      direction 0.000000 0.000000 1.000000
      length 2.952750
      axis 0.0 0.0 0.0 xyz
      dof rx ry rz
   end
   begin
      id 27
      name RightUpLeg
      direction 0.000000 -1.000000 0.000000
      length 16.346831
      axis 0.0 0.0 0.0 xyz
      dof rx ry rz
   end
   begin
      id 28
      name RightLeg
      direction 0.000000 -1.000000 0.000000
      length 13.959795
      axis 0.0 0.0 0.0 xyz
      dof rx ry rz
   end
   begin
      id 29
      name RightFoot
      direction 0.000000 -0.258819 0.965926
      length 5.165550
      axis 15.0 0.0 0.0 xyz
      dof rx ry rz
   end
   begin
      id 30
      name RightToeBase
      direction 0.000000 0.000000 1.000000
      length 2.952750
      axis 0.0 0.0 0.0 xyz
      dof rx ry rz
   end
:hierarchy
   begin
      root Spine_dum LeftUpLeg_dum RightUpLeg_dum
      Spine_dum Spine
      LeftUpLeg_dum LeftUpLeg
      RightUpLeg_dum RightUpLeg
      Spine Spine_dum1 Spine_dum2 Spine_dum3
      Spine_dum1 Head
      Spine_dum2 LeftShoulder
      Spine_dum3 RightShoulder
      LeftShoulder LeftArm
      LeftArm LeftForeArm
      LeftForeArm LeftHand
      LeftHand LeftHand_dum1 LeftHand_dum2
      LeftHand_dum1 LeftHandThumb1
      RightShoulder RightArm
      RightArm RightForeArm
      RightForeArm RightHand
      RightHand RightHand_dum1 RightHand_dum2
      RightHand_dum1 RightHandThumb1
      LeftUpLeg LeftLeg
      LeftLeg LeftFoot
      LeftFoot LeftToeBase
      RightUpLeg RightLeg
      RightLeg RightFoot
      RightFoot RightToeBase
   end

# File created by Blade
# Date/Time:  Tue Jan 27 19:05:02 2015
# Frame Rate: 120.000 fps
#------------------------------------------------------
:FULLY-SPECIFIED
:DEGREES
738
root -3.433908 31.680251 -4.233481 5.632667 30.793881 0.580869
Spine -4.399158 -8.661473 -3.981563
Head 21.102755 0.975154 0.718153
LeftShoulder -17.933389 13.136886 12.909147
LeftArm 23.243310 -33.956042 -71.240771
LeftForeArm -11.974188 -0.000000 81.877906
LeftHand -10.924638 0.000000 20.471251
LeftHandThumb1 -26.253704 0.000000 33.147579
RightShoulder -13.337670 -4.192085 -12.107258
RightArm 6.322561 -37.064184 87.378222
RightForeArm -23.726367 -0.000000 19.897078
RightHand -13.987791 0.000000 12.081542
RightHandThumb1 -24.326973 -0.000000 -32.862282
LeftUpLeg -7.404476 -26.743275 -4.792973
LeftLeg 17.966425 -0.000000 -0.000000
LeftFoot -21.004885 14.122001 -8.659587
LeftToeBase 9.983580 -0.000000 -0.000000
RightUpLeg -29.134653 18.409679 -4.867912
RightLeg 106.471158 -0.000000 -0.000000
RightFoot -17.811371 -8.706765 14.594623
RightToeBase -1.690797 -0.000000 0.000000
739
root -3.435720 31.684621 -4.226451 5.695764 30.736888 0.560887
Spine -4.449480 -8.605474 -3.921140
Head 20.794734 1.094923 0.667645
LeftShoulder -17.916764 13.205496 12.863320
LeftArm 23.174656 -34.065556 -71.256395
LeftForeArm -11.994399 -0.000000 81.965487
LeftHand -10.926403 -0.000000 20.383311
LeftHandThumb1 -26.253704 0.000000 33.147579
RightShoulder -13.261422 -4.163947 -12.134075
RightArm 6.361973 -37.074219 87.355893
RightForeArm -23.798355 -0.000000 19.752804
RightHand -14.298578 -0.000000 11.935088
RightHandThumb1 -24.326973 -0.000000 -32.862282
LeftUpLeg -7.454217 -26.935769 -4.731233
LeftLeg 17.904144 -0.000000 -0.000000
LeftFoot -20.992463 14.311366 -8.704152
LeftToeBase 10.046046 -0.000000 -0.000000
RightUpLeg -29.073044 18.234774 -4.739414
RightLeg 108.726883 -0.000000 -0.000000
RightFoot -17.573753 -8.542720 14.314860
RightToeBase -1.801029 -0.000000 0.000000
740
root -3.440177 31.688203 -4.222205 5.763952 30.690238 0.531463
Spine -4.491194 -8.549299 -3.862253
Head 20.471877 1.185831 0.639719
LeftShoulder -17.896067 13.231731 12.844685
LeftArm 23.098445 -34.151204 -71.271659
LeftForeArm -12.079360 -0.000000 82.030540
LeftHand -10.862465 -0.000000 20.422020
LeftHandThumb1 -26.253704 0.000000 33.147579
RightShoulder -13.196742 -4.101911 -12.151708
RightArm 6.395936 -37.090721 87.323451
RightForeArm -23.763587 0.000000 19.582591
RightHand -14.328151 0.000000 12.030649
RightHandThumb1 -24.326973 -0.000000 -32.862282
LeftUpLeg -7.538904 -27.098792 -4.654157
LeftLeg 17.890307 -0.000000 -0.000000
LeftFoot -21.007424 14.441631 -8.831014
LeftToeBase 10.157123 -0.000000 -0.000000
RightUpLeg -29.010594 18.044853 -4.628237
RightLeg 110.846751 -0.000000 -0.000000
RightFoot -17.588178 -8.065597 14.615742
RightToeBase -0.756853 -0.000000 0.000000
741
root -3.444614 31.690357 -4.215925 5.813874 30.667427 0.484496
Spine -4.524894 -8.543640 -3.783367
Head 20.153917 1.325659 0.605983
LeftShoulder -17.909785 13.304999 12.808759
LeftArm 23.079123 -34.257412 -71.329676
LeftForeArm -12.137561 0.000000 82.089192
LeftHand -10.845634 -0.000000 20.443655
LeftHandThumb1 -26.253704 0.000000 33.147579
RightShoulder -13.133881 -4.110246 -12.178533
RightArm 6.498818 -37.132216 87.249704
RightForeArm -23.695715 -0.000000 19.482659
RightHand -14.294382 -0.000000 12.167094
RightHandThumb1 -24.326973 -0.000000 -32.862282
LeftUpLeg -7.624133 -27.158707 -4.568200
LeftLeg 17.912818 -0.000000 -0.000000
LeftFoot -21.033791 14.496226 -8.865108
LeftToeBase 10.050759 -0.000000 -0.000000
RightUpLeg -28.926365 17.823962 -4.493261
RightLeg 112.804427 -0.000000 -0.000000
RightFoot -17.323736 -7.692731 14.509939
RightToeBase -1.090617 -0.000000 0.000000
742
root -3.449708 31.692747 -4.213136 5.890969 30.630949 0.451230
Spine -4.576623 -8.535577 -3.717410
Head 19.854431 1.451899 0.570542
LeftShoulder -17.915464 13.357723 12.775443
LeftArm 23.034079 -34.375366 -71.362852
LeftForeArm -12.161114 -0.000000 82.138507
LeftHand -10.821875 -0.000000 20.444351
LeftHandThumb1 -26.253704 0.000000 33.147579
RightShoulder -13.060091 -4.073709 -12.200148
RightArm 6.518691 -37.059266 87.212144
RightForeArm -23.690112 -0.000000 19.427773
RightHand -14.022429 -0.000000 12.387065
RightHandThumb1 -24.326973 -0.000000 -32.862282
LeftUpLeg -7.733690 -27.212113 -4.483694
LeftLeg 17.924549 -0.000000 -0.000000
LeftFoot -21.044771 14.553140 -8.901736
LeftToeBase 10.031507 -0.000000 -0.000000
RightUpLeg -28.866559 17.588590 -4.395410
RightLeg 114.639838 -0.000000 -0.000000
RightFoot -17.196813 -7.223795 14.534254
RightToeBase -1.441324 -0.000000 0.000000
743
root -3.454766 31.694864 -4.210618 5.972122 30.594911 0.428415
Spine -4.621651 -8.518309 -3.663848
Head 19.566185 1.554969 0.537636
LeftShoulder -17.895376 13.383868 12.743265
LeftArm 22.856961 -34.436643 -71.228680
LeftForeArm -12.329588 -0.000000 82.218238
LeftHand -10.707978 -0.000000 20.580648
LeftHandThumb1 -26.253704 0.000000 33.147579
RightShoulder -13.016460 -4.017514 -12.219910
RightArm 6.508417 -37.055104 87.178401
RightForeArm -23.681899 -0.000000 19.447521
RightHand -14.096155 -0.000000 12.191306
RightHandThumb1 -24.326973 -0.000000 -32.862282
LeftUpLeg -7.825505 -27.289951 -4.406542
LeftLeg 17.897062 -0.000000 -0.000000
LeftFoot -21.059710 14.623165 -8.942194
LeftToeBase 10.100722 -0.000000 -0.000000
RightUpLeg -28.803295 17.332404 -4.296693
RightLeg 116.294940 -0.000000 -0.000000
RightFoot -17.043728 -6.852200 14.584238
RightToeBase -0.936824 -0.000000 0.000000
744
root -3.460117 31.697085 -4.209257 6.064742 30.545359 0.416588
Spine -4.668341 -8.486120 -3.627757
Head 19.295523 1.666272 0.524611
LeftShoulder -17.902771 13.401859 12.726595
LeftArm 22.826691 -34.542930 -71.258226
LeftForeArm -12.405993 -0.000000 82.230927
LeftHand -10.677208 -0.000000 20.619502
LeftHandThumb1 -26.253704 0.000000 33.147579
RightShoulder -12.982126 -4.018785 -12.228848
RightArm 6.568850 -37.051555 87.109454
RightForeArm -23.708357 -0.000000 19.497154
RightHand -14.221638 -0.000000 11.997767
RightHandThumb1 -24.326973 -0.000000 -32.862282
LeftUpLeg -7.922611 -27.328688 -4.340960
LeftLeg 17.869248 -0.000000 -0.000000
LeftFoot -21.051488 14.684092 -8.987526
LeftToeBase 10.092269 -0.000000 -0.000000
RightUpLeg -28.756849 17.075175 -4.224074
RightLeg 117.786558 -0.000000 -0.000000
RightFoot -16.971049 -6.675337 14.488470
RightToeBase -1.089704 -0.000000 0.000000
745
root -3.464881 31.699803 -4.208309 6.166333 30.478239 0.415769
Spine -4.725102 -8.450685 -3.604220
Head 19.067870 1.770361 0.499246
LeftShoulder -17.905170 13.416571 12.703295
LeftArm 22.764216 -34.655929 -71.250343
LeftForeArm -12.460937 -0.000000 82.251409
LeftHand -10.670296 -0.000000 20.647977
LeftHandThumb1 -26.253704 0.000000 33.147579
RightShoulder -12.964668 -4.058075 -12.216129
RightArm 6.669092 -37.006255 87.004006
RightForeArm -23.697561 -0.000000 19.578257
RightHand -14.293618 -0.000000 12.001069
RightHandThumb1 -24.326973 -0.000000 -32.862282
LeftUpLeg -8.000039 -27.394505 -4.281943
LeftLeg 17.784521 -0.000000 -0.000000
LeftFoot -21.039568 14.783807 -9.024302
LeftToeBase 10.100502 -0.000000 -0.000000
RightUpLeg -28.725437 16.807081 -4.165373
RightLeg 119.071800 -0.000000 -0.000000
RightFoot -16.966345 -6.492908 14.443150
RightToeBase -1.483282 -0.000000 0.000000
746
root -3.471120 31.702945 -4.206474 6.248819 30.395794 0.399141
Spine -4.778160 -8.384576 -3.585647
Head 18.891909 1.849161 0.502417
LeftShoulder -17.886441 13.440710 12.717030
LeftArm 22.789002 -34.816548 -71.376333
LeftForeArm -12.424676 -0.000000 82.238977
LeftHand -10.711707 -0.000000 20.641087
LeftHandThumb1 -26.253704 0.000000 33.147579
RightShoulder -12.965750 -4.089992 -12.199359
RightArm 6.719691 -36.926477 86.921228
RightForeArm -23.628788 -0.000000 19.728936
RightHand -14.256356 -0.000000 12.058382
RightHandThumb1 -24.326973 -0.000000 -32.862282
LeftUpLeg -8.058405 -27.402955 -4.215552
LeftLeg 17.691788 -0.000000 -0.000000
LeftFoot -21.023708 14.851311 -9.052154
LeftToeBase 10.090757 -0.000000 -0.000000
RightUpLeg -28.687051 16.574788 -4.085435
RightLeg 120.213639 -0.000000 -0.000000
RightFoot -16.836002 -6.217714 14.257544
RightToeBase -0.942722 -0.000000 0.000000
747
root -3.477526 31.706733 -4.203257 6.320622 30.305615 0.370954
Spine -4.832687 -8.310067 -3.562653
Head 18.750322 1.920363 0.515751
LeftShoulder -17.860338 13.455621 12.719552
LeftArm 22.803608 -34.986245 -71.480574
LeftForeArm -12.379132 -0.000000 82.240148
LeftHand -10.829379 -0.000000 20.727556
LeftHandThumb1 -26.253704 0.000000 33.147579
RightShoulder -12.969288 -4.098211 -12.165596
RightArm 6.741259 -36.846136 86.832671
RightForeArm -23.675796 -0.000000 19.894788
RightHand -14.317405 -0.000000 11.835818
RightHandThumb1 -24.326973 -0.000000 -32.862282
LeftUpLeg -8.097895 -27.412815 -4.142889
LeftLeg 17.579406 -0.000000 -0.000000
LeftFoot -21.006342 14.941421 -9.053620
LeftToeBase 10.091485 -0.000000 -0.000000
RightUpLeg -28.652381 16.412358 -3.996214
RightLeg 121.174634 -0.000000 -0.000000
RightFoot -16.834908 -5.935583 14.372914
RightToeBase -0.964858 -0.000000 0.000000
748
root -3.485756 31.710279 -4.201976 6.391942 30.205403 0.355339
Spine -4.862469 -8.251699 -3.559252
Head 18.606072 1.990379 0.526850
LeftShoulder -17.831675 13.427033 12.733007
LeftArm 22.582236 -35.046481 -71.318294
LeftForeArm -12.530886 -0.000000 82.294929
LeftHand -10.714501 -0.000000 20.903412
LeftHandThumb1 -26.253704 0.000000 33.147579
RightShoulder -12.960364 -4.093777 -12.142245
RightArm 6.750009 -36.768880 86.773602
RightForeArm -23.719503 -0.000000 20.116386
RightHand -14.455555 -0.000000 11.670720
RightHandThumb1 -24.326973 -0.000000 -32.862282
LeftUpLeg -8.143091 -27.378350 -4.080083
LeftLeg 17.479461 -0.000000 -0.000000
LeftFoot -20.978729 14.980469 -9.077870
LeftToeBase 10.085135 -0.000000 -0.000000
RightUpLeg -28.644148 16.209667 -3.900677
RightLeg 121.927461 -0.000000 -0.000000
RightFoot -16.709140 -5.825289 14.314225
RightToeBase -0.778232 -0.000000 0.000000
749
root -3.493485 31.714357 -4.201133 6.447048 30.099425 0.344296
Spine -4.872335 -8.169735 -3.576698
Head 18.502438 2.035415 0.567418
LeftShoulder -17.791527 13.443610 12.754155
LeftArm 22.522739 -35.180036 -71.333799
LeftForeArm -12.540354 -0.000000 82.330653
LeftHand -10.698982 -0.000000 20.950409
LeftHandThumb1 -26.253704 0.000000 33.147579
RightShoulder -12.976097 -4.106642 -12.099596
RightArm 6.786538 -36.668416 86.690832
RightForeArm -23.737701 -0.000000 20.327241
RightHand -14.518184 -0.000000 11.645098
RightHandThumb1 -24.326973 -0.000000 -32.862282
LeftUpLeg -8.167657 -27.299144 -4.036437
LeftLeg 17.380507 -0.000000 -0.000000
LeftFoot -20.950103 14.997676 -9.097695
LeftToeBase 10.136073 -0.000000 -0.000000
RightUpLeg -28.633194 16.054188 -3.824597
RightLeg 122.525730 -0.000000 -0.000000
RightFoot -16.730285 -5.594120 14.470134
RightToeBase -0.636552 -0.000000 0.000000
